<?xml version="1.0" encoding="UTF-8" standalone="no"?>
<svg
   width="25"
   height="24"
   viewBox="0 0 25 24"
   fill="none"
   version="1.1"
   id="svg12"
   sodipodi:docname="tb_2d_annotations.svg"
   inkscape:version="1.2 (dc2aedaf03, 2022-05-15)"
   xmlns:inkscape="http://www.inkscape.org/namespaces/inkscape"
   xmlns:sodipodi="http://sodipodi.sourceforge.net/DTD/sodipodi-0.dtd"
   xmlns="http://www.w3.org/2000/svg"
   xmlns:svg="http://www.w3.org/2000/svg">
  <defs
     id="defs16" />
  <sodipodi:namedview
     id="namedview14"
     pagecolor="#ffffff"
     bordercolor="#000000"
     borderopacity="0.25"
     inkscape:showpageshadow="2"
     inkscape:pageopacity="0.0"
     inkscape:pagecheckerboard="0"
     inkscape:deskcolor="#d1d1d1"
     showgrid="true"
     inkscape:zoom="34.875"
     inkscape:cx="11.311828"
     inkscape:cy="12.014337"
     inkscape:window-width="1920"
     inkscape:window-height="1017"
     inkscape:window-x="-8"
     inkscape:window-y="-8"
     inkscape:window-maximized="1"
     inkscape:current-layer="layer1">
    <inkscape:grid
       type="xygrid"
       id="grid122" />
  </sodipodi:namedview>
  <g
     inkscape:groupmode="layer"
     id="layer1"
     inkscape:label="Scribble"
     style="display:inline;fill:none;stroke:#000000;stroke-width:1;stroke-dasharray:none;stroke-opacity:1">
    <path
       style="fill:none;fill-opacity:1;stroke:#ff0404;stroke-width:2;stroke-dasharray:none;stroke-opacity:1"
       d="m 2.0931899,21.90681 c 0,0 -0.5460276,-10.23434 3.5842295,-10.179212 3.8154247,0.05093 4.1543966,5.355084 10.3512546,5.247312 3.297491,-0.05735 4.501792,-3.870967 2.896058,-5.76344 C 17.318997,9.3189964 6.4516129,2.3799283 6.4516129,2.3799283"
       id="path924"
       sodipodi:nodetypes="csssc" />
  </g>
  <path
     fill-rule="evenodd"
     clip-rule="evenodd"
     d="M9.7315 17.5433L21.474 5.75229L21.8977 5.32858C22.8216 4.40463 19.6637 1.24166 18.7372 2.16808C18.343 2.5622 18.354 2.55122 18.354 2.55122L6.51709 14.3289L9.7315 17.5433ZM19.6341 5.81511L20.5838 4.863C21.008 4.43885 19.6241 3.04996 19.1979 3.47617L18.2453 4.42633L19.6341 5.81511ZM19.1775 6.27281L17.7876 4.88288L16.8775 5.79075L18.2697 7.18297L19.1775 6.27281ZM16.4198 6.2473L7.7233 14.9218L9.13859 16.3371L17.8131 7.64067L16.4198 6.2473Z"
     fill="#0E416C"
     id="path2" />
  <path
     d="M7.7233 14.9218L16.4198 6.2473L17.8131 7.64067L9.13859 16.3371L7.7233 14.9218Z"
     fill="white"
     id="path4" />
  <path
     d="M17.7876 4.88288L19.1775 6.27281L18.2697 7.18297L16.8775 5.79075L17.7876 4.88288Z"
     fill="white"
     id="path6" />
  <path
     d="M20.5838 4.863L19.6341 5.81511L18.2453 4.42633L19.1979 3.47617C19.6241 3.04996 21.008 4.43885 20.5838 4.863Z"
     fill="white"
     id="path8" />
  <path
     d="M2.07959 22L9.3638 17.7152L6.36442 14.7158L2.07959 22Z"
     fill="#0E416C"
     id="path10" />
</svg>
