<?xml version="1.0" encoding="UTF-8" standalone="no"?>
<svg
   width="24"
   height="24"
   viewBox="0 0 24 24"
   fill="none"
   version="1.1"
   id="svg1075"
   sodipodi:docname="tb_eraser.svg"
   inkscape:version="1.2 (dc2aedaf03, 2022-05-15)"
   xmlns:inkscape="http://www.inkscape.org/namespaces/inkscape"
   xmlns:sodipodi="http://sodipodi.sourceforge.net/DTD/sodipodi-0.dtd"
   xmlns="http://www.w3.org/2000/svg"
   xmlns:svg="http://www.w3.org/2000/svg">
  <defs
     id="defs1079" />
  <sodipodi:namedview
     id="namedview1077"
     pagecolor="#ffffff"
     bordercolor="#000000"
     borderopacity="0.25"
     inkscape:showpageshadow="2"
     inkscape:pageopacity="0.0"
     inkscape:pagecheckerboard="0"
     inkscape:deskcolor="#d1d1d1"
     showgrid="true"
     inkscape:zoom="34.875"
     inkscape:cx="11.870968"
     inkscape:cy="12.014337"
     inkscape:window-width="1920"
     inkscape:window-height="1017"
     inkscape:window-x="-8"
     inkscape:window-y="-8"
     inkscape:window-maximized="1"
     inkscape:current-layer="svg1075">
    <inkscape:grid
       type="xygrid"
       id="grid1665" />
  </sodipodi:namedview>
  <path
     style="display:inline;fill:none;fill-opacity:1;fill-rule:nonzero;stroke:#ff0404;stroke-width:2;stroke-dasharray:none;stroke-opacity:1"
     d="m 2.0931899,21.90681 c 0,0 -1.60718259,-2.183374 1.4336918,-3.182796 2.8328818,-0.931063 7.8120453,2.284763 11.4121863,2.322581 3.495842,0.03672 5.263475,-1.505204 4.444445,-3.584229 -0.898305,-2.280258 -3.813621,-1.003585 -3.813621,-1.003585"
     id="path924"
     sodipodi:nodetypes="csssc" />
  <path
     d="M14.1671 2.70711L20.5312 9.0712L9.83898 19.7634C8.86267 20.7397 7.27976 20.7397 6.30345 19.7634L1.70713 15.1671L14.1671 2.70711Z"
     fill="#DCEDF9"
     stroke="#0E416C"
     id="path1065" />
  <path
     fill-rule="evenodd"
     clip-rule="evenodd"
     d="M16.0689 12.8262L10.4121 7.16937L10.9424 6.63904L16.5992 12.2959L16.0689 12.8262Z"
     fill="#0E416C"
     id="path1067" />
  <path
     fill-rule="evenodd"
     clip-rule="evenodd"
     d="M11.2959 17.5992L5.6391 11.9423L6.16943 11.412L11.8263 17.0689L11.2959 17.5992Z"
     fill="#0E416C"
     id="path1069" />
  <rect
     x="6.16943"
     y="11.412"
     width="6"
     height="8"
     transform="rotate(-45 6.16943 11.412)"
     fill="#009AD9"
     id="rect1071" />
</svg>
